<mxfile host="app.diagrams.net">
  <diagram name="Product Update Process">
    <mxGraphModel dx="854" dy="564" grid="1" gridSize="10" guides="1" tooltips="1" connect="1" arrows="1" fold="1" page="1" pageScale="1" pageWidth="827" pageHeight="1169" math="0" shadow="0">
      <root>
        <mxCell id="0" />
        <mxCell id="1" parent="0" />
        <!-- User Interaction Section -->
        <mxCell id="2" value="User Interaction" style="swimlane;fillColor=#dae8fc;strokeColor=#6c8ebf;fontColor=#000000;" vertex="1" parent="1">
          <mxGeometry x="0" y="0" width="220" height="600" as="geometry" />
        </mxCell>
        <mxCell id="3" value="Approved User" style="rounded=1;whiteSpace=wrap;html=1;fillColor=#ffffff;strokeColor=#000000;fontColor=#000000;" vertex="1" parent="2">
          <mxGeometry x="20" y="50" width="180" height="50" as="geometry" />
        </mxCell>
        <mxCell id="4" value="Update Product Info" style="rounded=1;whiteSpace=wrap;html=1;fillColor=#ffffff;strokeColor=#000000;fontColor=#000000;" vertex="1" parent="2">
          <mxGeometry x="20" y="120" width="180" height="50" as="geometry" />
        </mxCell>
        <!-- System Interaction Section -->
        <mxCell id="5" value="System Processes" style="swimlane;fillColor=#d5e8d4;strokeColor=#82b366;fontColor=#000000;" vertex="1" parent="1">
          <mxGeometry x="240" y="0" width="300" height="600" as="geometry" />
        </mxCell>
        <mxCell id="6" value="Validate Product Data" style="rounded=1;whiteSpace=wrap;html=1;fillColor=#ffffff;strokeColor=#000000;fontColor=#000000;" vertex="1" parent="5">
          <mxGeometry x="20" y="50" width="260" height="50" as="geometry" />
        </mxCell>
        <mxCell id="7" value="Record Updates in DB" style="rounded=1;whiteSpace=wrap;html=1;fillColor=#ffffff;strokeColor=#000000;fontColor=#000000;" vertex="1" parent="5">
          <mxGeometry x="20" y="120" width="260" height="50" as="geometry" />
        </mxCell>
        <mxCell id="8" value="Append Historical Data" style="rounded=1;whiteSpace=wrap;html=1;fillColor=#ffffff;strokeColor=#000000;fontColor=#000000;" vertex="1" parent="5">
          <mxGeometry x="20" y="190" width="260" height="50" as="geometry" />
        </mxCell>
        <!-- Blockchain Section -->
        <mxCell id="9" value="Blockchain Ledger" style="swimlane;fillColor=#fff2cc;strokeColor=#d6b656;fontColor=#000000;" vertex="1" parent="1">
          <mxGeometry x="560" y="0" width="220" height="600" as="geometry" />
        </mxCell>
        <mxCell id="10" value="Record Transaction History" style="rounded=1;whiteSpace=wrap;html=1;fillColor=#ffffff;strokeColor=#000000;fontColor=#000000;" vertex="1" parent="9">
          <mxGeometry x="20" y="50" width="180" height="50" as="geometry" />
        </mxCell>
        <!-- Arrows -->
        <mxCell id="11" value="" style="edgeStyle=orthogonalEdgeStyle;rounded=0;orthogonalLoop=1;jettySize=auto;html=1;strokeColor=#000000;" edge="1" parent="1" source="3" target="4">
          <mxGeometry relative="1" as="geometry" />
        </mxCell>
        <mxCell id="12" value="" style="edgeStyle=orthogonalEdgeStyle;rounded=0;orthogonalLoop=1;jettySize=auto;html=1;strokeColor=#000000;" edge="1" parent="1" source="4" target="6">
          <mxGeometry relative="1" as="geometry" />
        </mxCell>
        <mxCell id="13" value="" style="edgeStyle=orthogonalEdgeStyle;rounded=0;orthogonalLoop=1;jettySize=auto;html=1;strokeColor=#000000;" edge="1" parent="1" source="6" target="7">
          <mxGeometry relative="1" as="geometry" />
        </mxCell>
        <mxCell id="14" value="" style="edgeStyle=orthogonalEdgeStyle;rounded=0;orthogonalLoop=1;jettySize=auto;html=1;strokeColor=#000000;" edge="1" parent="1" source="7" target="8">
          <mxGeometry relative="1" as="geometry" />
        </mxCell>
        <mxCell id="15" value="" style="edgeStyle=orthogonalEdgeStyle;rounded=0;orthogonalLoop=1;jettySize=auto;html=1;strokeColor=#000000;" edge="1" parent="1" source="8" target="10">
          <mxGeometry relative="1" as="geometry" />
        </mxCell>
      </root>
    </mxGraphModel>
  </diagram>
</mxfile>
